<svg width="20" height="20" viewBox="0 0 20 20" fill="none" xmlns="http://www.w3.org/2000/svg"><path opacity="0.4" fill-rule="evenodd" clip-rule="evenodd" d="M6.66642 2.5H4.99992C4.07944 2.5 3.33325 3.24619 3.33325 4.16667V17.5C3.33325 18.4205 4.07944 19.1667 4.99992 19.1667H14.9999C15.9204 19.1667 16.6666 18.4205 16.6666 17.5V4.16667C16.6666 3.24619 15.9204 2.5 14.9999 2.5H13.3331V2.91667C13.3331 3.60702 12.7734 4.16667 12.0831 4.16667H7.91642C7.22607 4.16667 6.66642 3.60702 6.66642 2.91667V2.5Z" fill="currentColor"></path><path fill-rule="evenodd" clip-rule="evenodd" d="M9.16667 1.66665L7.91667 1.66665C7.68655 1.66665 7.5 1.85319 7.5 2.08331V2.91665C7.5 3.14676 7.68655 3.33331 7.91667 3.33331H12.0833C12.3135 3.33331 12.5 3.14677 12.5 2.91665V2.08331C12.5 1.85319 12.3135 1.66665 12.0833 1.66665L10.8333 1.66665C10.8333 1.20641 10.4602 0.833313 10 0.833313C9.53976 0.833313 9.16667 1.20641 9.16667 1.66665Z" fill="currentColor"></path><rect opacity="0.3" x="8.33325" y="7.5" width="5.83333" height="1.66667" rx="0.833333" fill="currentColor"></rect><rect opacity="0.3" x="5.83325" y="7.5" width="1.66667" height="1.66667" rx="0.833333" fill="currentColor"></rect><rect opacity="0.3" x="5.83325" y="10.8333" width="1.66667" height="1.66667" rx="0.833333" fill="currentColor"></rect><rect opacity="0.3" x="8.33325" y="10.8333" width="5.83333" height="1.66667" rx="0.833333" fill="currentColor"></rect><rect opacity="0.3" x="5.83325" y="14.1667" width="1.66667" height="1.66667" rx="0.833333" fill="currentColor"></rect><rect opacity="0.3" x="8.33325" y="14.1667" width="5.83333" height="1.66667" rx="0.833333" fill="currentColor"></rect></svg>