<svg width="20" height="20" viewBox="0 0 20 20" fill="none" xmlns="http://www.w3.org/2000/svg"><path opacity="0.4" fill-rule="evenodd" clip-rule="evenodd" d="M17.0833 11.6667C17.7736 11.6667 18.3333 11.107 18.3333 10.4167C18.3333 9.72633 17.7736 9.16669 17.0833 9.16669C16.3929 9.16669 15.8333 9.72633 15.8333 10.4167C15.8333 11.107 16.3929 11.6667 17.0833 11.6667Z" fill="currentColor"></path><rect opacity="0.4" x="2.00098" y="4.54053" width="15" height="5.83333" rx="0.833333" transform="rotate(-15 2.00098 4.54053)" fill="currentColor"></rect><path fill-rule="evenodd" clip-rule="evenodd" d="M3.33341 3.33331C2.41294 3.33331 1.66675 4.0795 1.66675 4.99998V15C1.66675 15.9205 2.41294 16.6666 3.33341 16.6666H16.6667C17.5872 16.6666 18.3334 15.9205 18.3334 15V13.0525C17.9545 13.2326 17.5307 13.3333 17.0833 13.3333C15.4724 13.3333 14.1666 12.0275 14.1666 10.4166C14.1666 8.80581 15.4724 7.49997 17.0833 7.49997C17.5307 7.49997 17.9545 7.6007 18.3334 7.78072V4.99998C18.3334 4.07951 17.5872 3.33331 16.6667 3.33331H3.33341Z" fill="currentColor"></path></svg>